<?xml version="1.0" encoding="UTF-8" standalone="no"?>
<svg
   xmlns:dc="http://purl.org/dc/elements/1.1/"
   xmlns:cc="http://creativecommons.org/ns#"
   xmlns:rdf="http://www.w3.org/1999/02/22-rdf-syntax-ns#"
   xmlns:svg="http://www.w3.org/2000/svg"
   xmlns="http://www.w3.org/2000/svg"
   height="128"
   width="128"
   version="1.1"
   viewBox="0 0 128 128"
   id="svg4313">
  <defs
     id="defs3390" />
  <g
     transform="translate(-10.104,-471.31)"
     id="layer1">
    <g
       transform="matrix(0.18850482,0,0,0.18850482,12.201609,443.82234)"
       id="g4196">
      <path
         id="path4294"
         d="m 169.57,231.57 c 72.961,5.0436 129.91,47.518 129.91,98.512 0,41.444 -37.869,76.586 -91.124,91.124 l -82.504,70.19 0,-65.264 c -66.227,-9.04 -115.76,-48.32 -115.76,-96.06 0,-54.393 64.779,-98.512 144.69,-98.512 4.9944,0 9.9128,-0.3362 14.777,0 z"
         style="color:#000000;fill:#eab97a;fill-opacity:1" />
      <path
         id="path4287"
         style="color:#000000;fill:#835631;fill-opacity:1;stroke:#ffffff;stroke-width:29.06100082"
         d="m 396.94,184.63 c -107.62,7.4393 -191.62,70.09 -191.62,145.31 0,61.13 55.858,112.97 134.41,134.41 l 121.69,103.53 0,-96.265 c 97.678,-13.321 170.73,-71.266 170.73,-141.67 0,-80.23 -95.549,-145.31 -213.42,-145.31 -7.3668,0 -14.621,-0.49606 -21.796,0 z" />
    </g>
    <text
       id="text4200"
       y="594.81598"
       x="73.362923"
       style="font-style:normal;font-variant:normal;font-weight:normal;font-stretch:normal;font-size:27.34616661px;line-height:125%;font-family:'Luxi Sans';-inkscape-font-specification:'Luxi Sans, Normal';text-align:center;letter-spacing:0px;word-spacing:0px;writing-mode:lr-tb;text-anchor:middle;fill:#000000;fill-opacity:1;stroke:none;stroke-width:1px;stroke-linecap:butt;stroke-linejoin:miter;stroke-opacity:1"
       xml:space="preserve"><tspan
         y="594.81598"
         x="73.362923"
         id="tspan4202">SandChat</tspan></text>
  </g>
  <metadata
     id="metadata3388">
    <rdf:RDF>
      <cc:Work>
        <dc:format>image/svg+xml</dc:format>
        <dc:type
           rdf:resource="http://purl.org/dc/dcmitype/StillImage" />
        <cc:license
           rdf:resource="http://creativecommons.org/publicdomain/zero/1.0/" />
        <dc:publisher>
          <cc:Agent
             rdf:about="http://openclipart.org/">
            <dc:title>Openclipart</dc:title>
          </cc:Agent>
        </dc:publisher>
        <dc:title></dc:title>
      </cc:Work>
      <cc:License
         rdf:about="http://creativecommons.org/publicdomain/zero/1.0/">
        <cc:permits
           rdf:resource="http://creativecommons.org/ns#Reproduction" />
        <cc:permits
           rdf:resource="http://creativecommons.org/ns#Distribution" />
        <cc:permits
           rdf:resource="http://creativecommons.org/ns#DerivativeWorks" />
      </cc:License>
    </rdf:RDF>
  </metadata>
</svg>
